# xmcd CD database file
#
# Track frame offsets:
#	150
#	12859
#	32912
#	47504
#	64069
#	80112
#	98029
#	114949
#	128979
#	142427
#
# Disc length: 2162 seconds
#
# Revision: 0
# Processed by: cddbd v1.5.2PL0 Copyright (c) Steve Scherf et al.
# Submitted via: CDex 1.70beta2
#
DISCID=8908700a
DTITLE=Masson, Kiley Joe - Cdn. - ON - - Shame On Me
DYEAR=1900
DGENRE=Country
TTITLE0=Shame On Me
TTITLE1=Angel
TTITLE2=Ledgend In My Time
TTITLE3=You're 16, You're Beautiful and You're Mine
TTITLE4=Springtime In the Rockies
TTITLE5=I Can't Stop Loving You
TTITLE6=That's Why I Say "I Do"
TTITLE7=I Rreally Don't Want To Know
TTITLE8=Fast Lame Girl
TTITLE9=A Soldier's Memories
EXTD=
EXTT0=
EXTT1=
EXTT2=
EXTT3=
EXTT4=
EXTT5=
EXTT6=
EXTT7=
EXTT8=
EXTT9=
PLAYORDER=
